<?xml version="1.0" standalone="no"?>
<!DOCTYPE svg PUBLIC "-//W3C//DTD SVG 20010904//EN"
 "http://www.w3.org/TR/2001/REC-SVG-20010904/DTD/svg10.dtd">
<svg version="1.0" xmlns="http://www.w3.org/2000/svg"
 width="1024.000000pt" height="1024.000000pt" viewBox="0 0 1024.000000 1024.000000"
 preserveAspectRatio="xMidYMid meet">

<g transform="translate(0.000000,1024.000000) scale(0.100000,-0.100000)"
fill="#000000" stroke="none">
<path d="M2615 8879 c-371 -18 -669 -143 -911 -384 -237 -235 -359 -510 -393
-885 -14 -151 -15 -4835 -1 -5002 29 -351 154 -632 381 -859 225 -224 522
-358 884 -399 125 -14 4916 -14 5056 0 439 44 802 234 1037 545 73 97 176 309
206 425 53 204 51 79 51 2810 0 2431 -1 2550 -18 2650 -80 452 -340 793 -742
973 -200 89 -331 117 -575 123 -312 7 -4826 9 -4975 3z m3619 -798 c4 -28 17
-51 43 -76 20 -19 40 -35 44 -35 4 0 20 -5 36 -11 l28 -11 -39 -13 c-53 -18
-93 -59 -114 -118 l-19 -50 -7 41 c-8 53 -55 106 -109 125 l-42 14 40 17 c21
9 48 24 58 34 25 22 57 86 57 112 0 35 17 14 24 -29z m-714 -11 c0 -5 -2 -10
-4 -10 -3 0 -8 5 -11 10 -3 6 -1 10 4 10 6 0 11 -4 11 -10z m-1750 -49 c17
-32 -4 -71 -38 -71 -33 0 -52 16 -52 45 0 12 5 26 12 33 19 19 66 15 78 -7z
m1435 -101 c-3 -5 -11 -10 -16 -10 -6 0 -7 5 -4 10 3 6 11 10 16 10 6 0 7 -4
4 -10z m2812 -62 c50 -47 17 -132 -52 -132 -46 0 -75 31 -75 80 0 67 77 99
127 52z m-5433 -148 c32 -107 99 -176 210 -214 l68 -24 -54 -16 c-131 -38
-209 -125 -244 -271 -7 -30 -7 -29 -19 17 -15 57 -49 125 -78 156 -32 34 -107
79 -157 93 -50 14 -74 29 -47 29 32 0 144 57 184 94 45 40 89 124 100 188 7
47 8 45 37 -52z m2260 -159 c16 -17 16 -141 13 -1827 -3 -1367 -6 -1822 -16
-1864 -42 -192 -64 -260 -120 -367 -183 -349 -554 -567 -1028 -602 -403 -31
-819 89 -1073 309 -96 83 -100 73 133 308 111 111 209 202 219 202 10 0 43
-16 75 -37 203 -129 471 -186 658 -138 205 53 364 214 432 440 16 57 18 160
20 1809 3 1603 5 1751 20 1768 15 17 40 18 333 18 297 0 318 -1 334 -19z
m2576 -210 c16 -30 14 -3563 -2 -3579 -17 -17 -539 -17 -556 0 -8 8 -12 62
-12 175 0 182 -5 194 -53 119 -15 -25 -57 -76 -93 -115 -274 -296 -712 -343
-1089 -118 -99 58 -257 219 -319 325 -92 155 -155 343 -181 540 -20 145 -19
495 0 643 43 329 153 560 359 757 203 193 454 285 731 269 213 -13 360 -77
520 -227 l70 -65 5 631 c4 515 8 634 19 647 12 15 46 17 302 17 275 0 289 -1
299 -19z m-5770 -871 c0 -5 -5 -10 -11 -10 -5 0 -7 5 -4 10 3 6 8 10 11 10 2
0 4 -4 4 -10z m6627 -293 c16 -16 47 -38 71 -49 l43 -19 -53 -27 c-61 -32 -84
-60 -103 -128 -11 -40 -13 -44 -14 -20 -2 52 -39 114 -85 141 -24 14 -51 25
-60 25 -26 0 -10 17 23 23 45 9 98 66 113 122 l13 48 12 -44 c7 -23 25 -56 40
-72z m-5966 -270 c50 -39 48 -115 -4 -147 -18 -11 -42 -20 -53 -20 -27 0 -73
36 -85 67 -11 29 10 86 38 102 24 14 84 13 104 -2z m822 -993 c23 -45 90 -101
136 -115 23 -7 41 -15 41 -19 0 -4 -18 -12 -41 -19 -75 -22 -167 -134 -170
-206 0 -11 -8 3 -18 31 -9 27 -27 64 -39 81 -25 35 -103 88 -145 98 -34 9 -45
25 -17 25 28 0 110 43 136 72 30 32 61 96 70 143 l7 40 12 -50 c6 -27 19 -64
28 -81z m-1023 -1264 c18 -33 8 -73 -21 -89 -24 -13 -29 -13 -53 2 -19 13 -26
26 -26 50 0 42 15 57 57 57 22 0 36 -6 43 -20z m5579 -665 c38 -87 117 -153
219 -185 44 -14 53 -20 37 -25 -11 -3 -51 -21 -88 -38 -105 -48 -163 -120
-197 -240 l-16 -59 -18 64 c-38 138 -119 220 -261 264 -34 10 -37 13 -20 19
166 61 248 147 286 299 l12 49 14 -53 c7 -29 22 -72 32 -95z m-2409 0 c0 -5
-5 -3 -10 5 -5 8 -10 20 -10 25 0 6 5 3 10 -5 5 -8 10 -19 10 -25z m203 -312
c23 -43 82 -90 139 -111 l47 -16 -47 -18 c-26 -10 -64 -32 -86 -50 -38 -31
-86 -115 -86 -150 0 -10 -4 -18 -10 -18 -5 0 -10 10 -10 23 -1 69 -82 163
-168 193 l-50 18 57 23 c36 14 71 38 98 68 39 43 51 67 68 140 7 29 8 28 19
-20 7 -27 20 -64 29 -82z m-2909 -358 c18 -19 47 -38 65 -41 39 -8 40 -20 2
-27 -45 -9 -89 -53 -104 -104 l-13 -45 -12 40 c-13 44 -67 98 -107 108 -30 7
-33 24 -5 24 31 0 96 70 111 120 l13 44 9 -42 c5 -26 21 -55 41 -77z m4170
-156 c32 -25 34 -61 5 -90 -22 -22 -61 -20 -88 6 -21 21 -17 66 9 87 29 23 41
23 74 -3z m-3669 -69 c3 -5 1 -10 -4 -10 -6 0 -11 5 -11 10 0 6 2 10 4 10 3 0
8 -4 11 -10z m3275 -200 c0 -5 -4 -10 -10 -10 -5 0 -10 5 -10 10 0 6 5 10 10
10 6 0 10 -4 10 -10z"/>
<path d="M3702 8018 c-15 -15 -16 -28 -2 -28 6 0 10 7 10 15 0 20 26 19 34 -1
9 -22 8 -26 -6 -18 -7 5 -8 3 -3 -6 6 -10 2 -12 -15 -7 -16 4 -20 3 -12 -5 25
-25 65 19 42 47 -15 18 -32 19 -48 3z"/>
<path d="M6190 5830 c-161 -28 -308 -147 -382 -308 -16 -35 -39 -102 -51 -150
-20 -80 -22 -109 -21 -372 0 -262 2 -292 22 -365 78 -284 249 -425 517 -425
249 0 437 133 498 350 27 97 30 149 28 490 -2 365 -9 429 -58 530 -34 71 -132
167 -206 203 -102 50 -231 67 -347 47z"/>
</g>
</svg>
